# Blender v2.79 (sub 0) OBJ File: 'cubes.blend'
# www.blender.org
mtllib cubes.mtl
o Cube.001
v -0.309376 2.483670 0.497441
v -0.309376 3.722768 0.497441
v -0.309376 2.483670 -0.741657
v -0.309376 3.722768 -0.741657
v 0.929722 2.483670 0.497441
v 0.929722 3.722768 0.497441
v 0.929722 2.483670 -0.741657
v 0.929722 3.722768 -0.741657
vn -1.0000 0.0000 0.0000
vn 0.0000 0.0000 -1.0000
vn 1.0000 0.0000 0.0000
vn 0.0000 0.0000 1.0000
vn 0.0000 -1.0000 0.0000
vn 0.0000 1.0000 0.0000
usemtl Material.001
s off
f 2//1 3//1 1//1
f 4//2 7//2 3//2
f 8//3 5//3 7//3
f 6//4 1//4 5//4
f 7//5 1//5 3//5
f 4//6 6//6 8//6
f 2//1 4//1 3//1
f 4//2 8//2 7//2
f 8//3 6//3 5//3
f 6//4 2//4 1//4
f 7//5 5//5 1//5
f 4//6 2//6 6//6
o Cube
v 1.294426 -1.073790 -1.030648
v 1.294426 -1.073790 0.969352
v -0.705574 -1.073790 0.969352
v -0.705574 -1.073790 -1.030648
v 1.294427 0.926210 -1.030647
v 1.294425 0.926210 0.969353
v -0.705574 0.926210 0.969352
v -0.705574 0.926210 -1.030648
vn 0.0000 -1.0000 0.0000
vn 0.0000 1.0000 0.0000
vn 1.0000 -0.0000 0.0000
vn -1.0000 -0.0000 -0.0000
vn -0.0000 -0.0000 1.0000
vn 0.0000 0.0000 -1.0000
usemtl Material.002
s off
f 10//7 12//7 9//7
f 16//8 14//8 13//8
f 13//9 10//9 9//9
f 11//10 16//10 12//10
f 10//7 11//7 12//7
f 16//8 15//8 14//8
f 13//9 14//9 10//9
f 11//10 15//10 16//10
usemtl Material.001
f 14//11 11//11 10//11
f 9//12 16//12 13//12
f 14//11 15//11 11//11
f 9//12 12//12 16//12
